<svg width="24" height="24" viewBox="0 0 24 24" fill="none" xmlns="http://www.w3.org/2000/svg">
<path fill-rule="evenodd" clip-rule="evenodd" d="M11.6648 18.6314L5.73346 21.8808C5.25989 22.1269 4.67646 21.9527 4.41538 21.4872V21.4872C4.33985 21.343 4.2991 21.1832 4.29639 21.0204V6.62223C4.29639 3.87623 6.17282 2.77783 8.87305 2.77783H15.2163C17.8341 2.77783 19.793 3.803 19.793 6.43916V21.0204C19.793 21.2801 19.6898 21.5293 19.5061 21.7129C19.3224 21.8966 19.0733 21.9998 18.8135 21.9998C18.6479 21.9972 18.485 21.9565 18.3376 21.8808L12.3696 18.6314C12.1497 18.5126 11.8847 18.5126 11.6648 18.6314Z" stroke="#FDFDFD" stroke-width="1.5" stroke-linecap="round" stroke-linejoin="round"/>
<path opacity="0.4" d="M8.36963 9.32241H15.6648" stroke="#FDFDFD" stroke-width="1.5" stroke-linecap="round" stroke-linejoin="round"/>
</svg>
