<svg width="24" height="24" viewBox="0 0 24 24" fill="none" xmlns="http://www.w3.org/2000/svg">
<path d="M4.79413 7.05575C4.79413 5.80675 5.80713 4.79375 7.05513 4.79375H8.08413C8.68013 4.79375 9.25313 4.55775 9.67713 4.13675L10.3961 3.41675C11.2771 2.53175 12.7091 2.52775 13.5941 3.40875L13.6031 3.41675L14.3231 4.13675C14.7461 4.55775 15.3191 4.79375 15.9161 4.79375H16.9441C18.1931 4.79375 19.2061 5.80675 19.2061 7.05575V8.08275C19.2061 8.68075 19.4421 9.25275 19.8631 9.67675L20.5831 10.3967C21.4681 11.2777 21.4731 12.7087 20.5921 13.5947L20.5831 13.6037L19.8631 14.3237C19.4421 14.7457 19.2061 15.3197 19.2061 15.9157V16.9447C19.2061 18.1937 18.1931 19.2057 16.9441 19.2057H15.9161C15.3191 19.2057 14.7461 19.4427 14.3231 19.8637L13.6031 20.5827C12.7231 21.4687 11.2911 21.4727 10.4051 20.5917C10.4021 20.5887 10.3991 20.5857 10.3961 20.5827L9.67713 19.8637C9.25313 19.4427 8.68013 19.2057 8.08413 19.2057H7.05513C5.80713 19.2057 4.79413 18.1937 4.79413 16.9447V15.9157C4.79413 15.3197 4.55713 14.7457 4.13613 14.3237L3.41713 13.6037C2.53113 12.7227 2.52713 11.2907 3.40813 10.4057L3.41713 10.3967L4.13613 9.67675C4.55713 9.25275 4.79413 8.68075 4.79413 8.08275V7.05575" stroke="#FDFDFD" stroke-width="1.5" stroke-linecap="round" stroke-linejoin="round"/>
<path opacity="0.4" d="M9.42969 14.5697L14.5697 9.42969" stroke="#FDFDFD" stroke-width="1.5" stroke-linecap="round" stroke-linejoin="round"/>
<path opacity="0.4" d="M14.5664 15.3225C14.3664 15.3225 14.1764 15.2425 14.0364 15.1025C13.9664 15.0325 13.9164 14.9425 13.8764 14.8525C13.8364 14.7625 13.8164 14.6735 13.8164 14.5725C13.8164 14.4725 13.8364 14.3725 13.8764 14.2825C13.9164 14.1925 13.9664 14.1125 14.0364 14.0425C14.3164 13.7625 14.8164 13.7625 15.0964 14.0425C15.1664 14.1125 15.2264 14.1925 15.2664 14.2825C15.2964 14.3725 15.3164 14.4725 15.3164 14.5725C15.3164 14.6735 15.2964 14.7625 15.2664 14.8525C15.2264 14.9425 15.1664 15.0325 15.0964 15.1025C14.9564 15.2425 14.7664 15.3225 14.5664 15.3225Z" fill="#FDFDFD"/>
<path opacity="0.4" d="M9.42627 10.1826C9.32627 10.1826 9.23627 10.1616 9.14627 10.1216C9.05627 10.0816 8.96627 10.0326 8.89627 9.96264C8.82627 9.88264 8.77627 9.80264 8.73627 9.71264C8.69627 9.62164 8.67627 9.53264 8.67627 9.43264C8.67627 9.33164 8.69627 9.23264 8.73627 9.14264C8.77627 9.05264 8.82627 8.96264 8.89627 8.90264C9.18627 8.62164 9.67627 8.62164 9.95627 8.90264C10.0963 9.04164 10.1763 9.23264 10.1763 9.43264C10.1763 9.53264 10.1663 9.62164 10.1263 9.71264C10.0863 9.80264 10.0263 9.88264 9.95627 9.96264C9.88627 10.0326 9.80627 10.0816 9.71627 10.1216C9.62627 10.1616 9.52627 10.1826 9.42627 10.1826Z" fill="#FDFDFD"/>
</svg>
