<svg width="18" height="20" viewBox="0 0 18 20" fill="none" xmlns="http://www.w3.org/2000/svg">
<path opacity="0.4" d="M10.1203 3.54248V5.55915" stroke="white" stroke-width="1.25" stroke-linecap="round" stroke-linejoin="round"/>
<path opacity="0.4" d="M10.1203 14.8008V16.4875" stroke="white" stroke-width="1.25" stroke-linecap="round" stroke-linejoin="round"/>
<path opacity="0.4" d="M10.1203 11.9379V7.92041" stroke="white" stroke-width="1.25" stroke-linecap="round" stroke-linejoin="round"/>
<path fill-rule="evenodd" clip-rule="evenodd" d="M13.5726 16.6669C14.8688 16.6669 15.9186 15.4523 15.9186 13.9528V11.7924C15.0609 11.7924 14.3702 10.9933 14.3702 10.001C14.3702 9.0088 15.0609 8.20883 15.9186 8.20883L15.9179 6.04755C15.9179 4.54804 14.8673 3.3335 13.5718 3.3335H4.03772C2.74227 3.3335 1.69166 4.54804 1.69166 6.04755L1.69092 8.27922C2.54862 8.27922 3.23938 9.0088 3.23938 10.001C3.23938 10.9933 2.54862 11.7924 1.69092 11.7924V13.9528C1.69092 15.4523 2.74078 16.6669 4.03698 16.6669H13.5726Z" stroke="white" stroke-width="1.25" stroke-linecap="round" stroke-linejoin="round"/>
</svg>
